<svg id="epqXU4IGYMl1" xmlns="http://www.w3.org/2000/svg" xmlns:xlink="http://www.w3.org/1999/xlink" viewBox="0 0 100 100" shape-rendering="geometricPrecision" text-rendering="geometricPrecision" project-id="88c3aebd953c46debb9df79a5564f8d4" export-id="a51872171df34af7ba645bfd595c6034" cached="false"><g transform="matrix(.75 0 0 0.792671 12.5 6.403097)"><g><line x1="10" y1="35" x2="90" y2="35" fill="#87cefa" stroke="#87cefa" stroke-width="2"/><line x1="10" y1="45" x2="90" y2="45" fill="#87cefa" stroke="#87cefa" stroke-width="2"/><line x1="10" y1="55" x2="90" y2="55" fill="#87cefa" stroke="#87cefa" stroke-width="2"/><line x1="10" y1="65" x2="90" y2="65" fill="#87cefa" stroke="#87cefa" stroke-width="2"/><line x1="10" y1="75" x2="90" y2="75" fill="#87cefa" stroke="#87cefa" stroke-width="2"/></g><g transform="matrix(.582478 0 0 0.454118-6.527524 26.399969)"><ellipse rx="10" ry="7" transform="matrix(.866025-.5 0.5 0.866025 50 29.99995)" stroke="#000" stroke-width="3"/><line x1="41.339746" y1="35" x2="41.339746" y2="85" stroke="#000" stroke-width="3"/><line x1="41.339746" y1="85" x2="61.339746" y2="75" stroke="#000" stroke-width="3"/></g><g transform="matrix(.582478 0 0 0.454118 13.793021 31.905854)"><ellipse rx="10" ry="7" transform="matrix(.866025-.5 0.5 0.866025 50 29.99995)" stroke="#000" stroke-width="3"/><line x1="41.339746" y1="35" x2="41.339746" y2="85" stroke="#000" stroke-width="3"/><line x1="41.339746" y1="85" x2="61.339746" y2="75" stroke="#000" stroke-width="3"/></g><g transform="matrix(.582478 0 0 0.454118 37.364719 21.399992)"><ellipse rx="10" ry="7" transform="matrix(.866025-.5 0.5 0.866025 58.584015 29.99995)" stroke="#000" stroke-width="3"/><g><line x1="41.339746" y1="35" x2="41.339746" y2="85" transform="translate(8.584015 0)" stroke="#000" stroke-width="3"/></g></g><rect width="48" height="48" rx="6.22" ry="6.22" transform="matrix(1 0 0 1.339154 10 22.860304)" opacity="0.53" fill="#fb8f01" stroke="#fb8f01"/></g></svg>
