<svg id="ewYF2E5ybXu1" xmlns="http://www.w3.org/2000/svg" xmlns:xlink="http://www.w3.org/1999/xlink" viewBox="0 0 100 100" shape-rendering="geometricPrecision" text-rendering="geometricPrecision" project-id="e35754059b6e4d0e99dbea0f95708c71" export-id="7130f4eed5a64bbbb5fe3d83346bea61" cached="false"><rect width="42" height="49.3" rx="0" ry="0" transform="matrix(1.134904 0 0 1 27.623016 49.2)" stroke="#000"/><polygon points="20,20 20,80 80,50" transform="matrix(.692837 0 0 0.800391 16.81415 33.99218)" stroke="#000"/><g transform="matrix(1.722648 0 0 1.859865-35.404954-6.337819)"><path d="M42.906499,26.713662L21.594726,64.184164c-.954031,1.684509-.951947,3.757096.00547,5.439625s2.725287,2.720388,4.639873,2.723924h42.641871c1.921892.003623,3.699118-1.035469,4.659969-2.724547s.958768-3.770504-.005463-5.457597L52.21551,26.713662c-.957882-1.69042-2.732946-2.732498-4.654506-2.732498s-3.696623,1.042078-4.654505,2.732498Z" transform="matrix(.312998 0 0 0.451811 35.029521-4.806062)" fill="#87cefa" stroke="#87cefa"/><line x1="4.55883" y1="8.189643" x2="-4.55883" y2="-8.189643" transform="translate(45.44117 13.367406)" stroke="#000"/><line x1="-9.11766" y1="0" x2="9.40386" y2="0" transform="matrix(.74467-.001111 0.001492 0.999999 49.790787 21.557049)" stroke="#000"/><path d="M34,20.6c17.673112,0,32,14.326888,32,32s-14.326888,32-32,32Z" transform="matrix(.043426 0.070175-.040316 0.024948 43.549334 4.960054)" stroke="#000"/></g></svg>
